<?xml version="1.0" standalone="no"?>
<!DOCTYPE svg PUBLIC "-//W3C//DTD SVG 20010904//EN"
 "http://www.w3.org/TR/2001/REC-SVG-20010904/DTD/svg10.dtd">
<svg version="1.0" xmlns="http://www.w3.org/2000/svg"
 width="600.000000pt" height="600.000000pt" viewBox="0 0 600.000000 600.000000"
 preserveAspectRatio="xMidYMid meet">
<metadata>
Created by potrace 1.11, written by Peter Selinger 2001-2013
</metadata>
<g transform="translate(0.000000,600.000000) scale(0.100000,-0.100000)"
fill="#000000" stroke="none">
<path d="M0 3000 l0 -3000 1435 0 1435 0 -30 53 c-17 28 -36 62 -42 75 -6 12
-15 22 -19 22 -14 0 -46 67 -53 113 -6 38 -3 53 15 85 l23 39 -20 29 c-19 28
-22 70 -4 59 5 -3 12 0 16 6 4 7 3 9 -3 6 -6 -4 -18 4 -27 18 -13 20 -14 30
-5 46 12 24 3 40 -12 19 -7 -11 -8 -7 -3 13 4 17 1 33 -7 44 -12 13 -12 17 -1
21 10 3 7 11 -9 28 -22 23 -25 35 -28 112 -1 22 -5 31 -12 26 -8 -4 -9 0 -4
15 3 12 2 21 -4 21 -17 0 -40 84 -107 400 -14 69 -35 161 -46 205 -49 202 -60
264 -61 325 -1 63 0 65 26 68 15 2 27 7 27 13 0 5 23 0 52 -12 35 -14 54 -17
62 -9 5 5 18 10 28 10 10 0 18 5 18 10 0 6 7 10 16 10 13 0 15 8 12 35 -3 25
0 35 10 35 10 0 12 6 7 18 -4 9 -8 24 -9 32 -1 9 -5 21 -9 27 -10 16 24 33 67
33 25 0 45 -9 70 -30 37 -33 94 -60 125 -60 23 0 113 -39 91 -40 -18 -1 49
-59 68 -60 18 0 -16 57 -37 64 -9 3 4 4 28 1 51 -4 91 8 91 29 0 8 9 18 20 21
11 3 21 13 21 21 1 8 2 20 2 27 1 6 -6 26 -16 44 -16 30 -14 63 4 63 5 0 4 11
-1 24 -8 21 -5 26 18 36 15 6 38 17 52 25 14 8 33 15 43 15 9 0 41 16 69 36
29 19 65 38 80 41 15 3 26 8 24 12 -3 4 16 20 42 36 26 17 58 42 71 58 13 15
31 26 40 25 10 -2 17 5 19 20 2 12 9 22 15 22 23 0 67 51 142 165 78 119 89
141 55 110 -11 -10 -20 -22 -20 -28 0 -14 -47 -67 -54 -60 -3 4 -6 -1 -6 -9 0
-9 -7 -18 -15 -22 -8 -3 -12 -12 -9 -21 4 -9 2 -15 -4 -13 -6 2 -29 -15 -51
-37 -90 -90 -130 -125 -142 -125 -8 0 -41 -25 -74 -55 -33 -30 -85 -68 -116
-85 -63 -33 -147 -47 -155 -25 -3 7 -14 12 -24 10 -11 -2 -20 4 -23 15 -3 10
-15 20 -28 22 -18 2 -24 9 -24 29 1 33 -38 38 -60 7 -8 -13 -15 -19 -15 -14 0
5 -7 3 -15 -4 -12 -10 -15 -9 -15 6 0 14 -3 15 -8 6 -13 -19 -45 -3 -39 19 3
12 0 19 -9 19 -17 0 -19 47 -1 53 9 3 9 8 -2 21 -12 14 -12 19 -2 26 8 4 10
13 7 19 -10 15 3 53 15 45 6 -3 17 2 25 12 9 11 12 13 8 5 -11 -22 58 -2 78
22 10 12 18 39 18 59 0 26 5 38 18 41 19 4 1 14 -72 37 -40 13 -136 97 -136
119 0 6 -4 11 -10 11 -5 0 -10 5 -10 10 0 13 68 13 146 -1 44 -8 68 -8 81 0
17 10 16 10 -4 11 -13 0 -23 5 -23 10 0 6 -8 5 -20 -2 -26 -17 -74 0 -78 28
-2 16 6 26 31 38 19 9 43 16 54 16 10 0 35 5 56 11 34 9 36 12 22 25 -8 9 -44
22 -79 29 -69 15 -138 44 -140 60 -2 25 134 61 167 43 22 -12 23 -11 30 29 5
27 1 36 -34 70 -58 56 -66 101 -43 251 3 19 1 32 -3 29 -13 -8 -5 252 9 300
13 46 35 56 58 28 18 -21 24 -11 10 15 -9 16 -9 25 0 35 10 11 6 15 -17 20
-46 11 -53 14 -53 25 0 5 7 10 15 10 21 0 30 27 15 45 -9 10 -17 12 -30 5 -21
-11 -30 -4 -30 23 0 17 5 18 34 13 19 -4 47 -4 63 0 24 7 25 8 8 15 -11 4 -34
8 -52 8 -17 1 -35 6 -38 11 -3 6 -26 10 -49 10 -24 0 -57 6 -72 13 -44 19 -85
59 -79 77 3 9 -4 35 -16 59 l-21 43 39 42 c21 22 41 42 46 44 13 6 7 32 -7 32
-9 0 -12 7 -9 20 5 20 23 28 23 11 0 -5 8 -11 18 -15 9 -3 23 -9 30 -12 7 -3
37 20 71 56 32 35 63 60 69 56 6 -3 21 -2 34 3 15 6 31 5 43 -1 14 -9 21 -7
31 8 28 39 66 72 79 68 13 -5 40 16 47 37 2 6 16 12 31 12 18 0 27 5 28 16 0
11 2 12 6 3 3 -7 0 -19 -7 -26 -15 -19 -3 -24 46 -19 31 4 45 11 54 29 7 13
16 21 20 19 3 -2 14 5 23 16 20 22 44 24 66 5 20 -17 61 -30 61 -19 0 5 -13
20 -30 35 -30 26 -45 63 -16 39 8 -6 29 -14 47 -16 17 -2 36 -10 40 -17 6 -9
9 -8 9 6 0 11 3 17 6 13 4 -3 13 1 22 10 14 14 17 14 29 -3 12 -17 13 -16 13
4 0 12 6 22 14 22 7 0 21 12 31 26 16 24 16 26 -4 31 -12 3 -18 9 -16 14 3 4
17 3 31 -3 20 -9 30 -9 46 1 15 9 18 9 13 0 -6 -8 1 -10 24 -7 32 5 50 -5 32
-17 -6 -3 -6 -17 1 -35 5 -17 8 -37 4 -45 -13 -34 43 -99 80 -92 21 4 24 1 19
-17 -5 -16 1 -13 26 13 l32 35 -6 -37 c-3 -20 -2 -37 3 -37 5 0 12 -9 15 -21
5 -14 10 -17 19 -10 15 12 36 -4 36 -28 0 -14 1 -14 10 -1 7 12 10 8 10 -15
l1 -30 19 24 20 23 1 -28 c0 -27 1 -27 9 -8 5 12 14 25 20 29 9 6 9 2 1 -13
-11 -21 2 -69 23 -84 11 -7 -1 -117 -15 -134 -6 -8 -6 -21 1 -38 14 -39 13
-42 -17 -41 -27 0 -28 2 -27 50 1 28 4 67 7 88 3 20 1 37 -4 37 -4 0 -6 8 -2
18 5 13 3 14 -7 5 -9 -8 -12 -43 -12 -113 1 -55 -3 -111 -8 -123 l-9 -22 0 23
c-1 12 -5 22 -10 22 -5 0 -12 20 -16 45 -3 25 -10 43 -16 40 -5 -4 -9 -1 -9 4
0 6 6 11 14 11 18 0 28 42 18 71 -8 21 -9 20 -16 -12 l-8 -34 -12 35 c-9 24
-20 36 -36 38 -20 3 -22 8 -17 48 2 24 0 44 -5 44 -5 0 -6 5 -3 10 3 6 1 10
-5 10 -6 0 -8 10 -5 23 6 24 -10 56 -22 44 -4 -5 -1 -12 6 -16 10 -7 11 -13 1
-31 -9 -16 -9 -25 -1 -33 6 -6 11 -20 11 -31 0 -18 -2 -19 -11 -6 -9 12 -9 11
-4 -5 5 -11 10 -42 12 -70 2 -27 11 -63 19 -79 17 -35 20 -70 3 -46 -13 18 -1
-86 12 -112 5 -9 9 -28 9 -41 0 -25 16 -37 50 -37 16 0 18 -8 17 -64 -2 -63
-3 -65 -37 -81 -34 -17 -34 -18 -12 -26 19 -7 22 -16 22 -59 0 -27 4 -50 9
-50 5 0 7 -27 5 -60 -5 -73 15 -82 42 -20 10 22 21 40 25 40 3 0 16 -28 29
-61 18 -49 20 -66 11 -86 -9 -19 -8 -25 6 -30 25 -10 65 18 90 62 35 62 30 83
-32 138 -53 46 -55 47 -79 32 -26 -18 -46 -4 -27 18 16 21 17 97 0 108 -11 8
-8 9 10 7 19 -2 26 3 31 22 8 35 38 38 46 5 8 -32 43 -53 55 -34 5 8 9 25 9
37 0 25 20 26 28 2 3 -7 0 -10 -7 -6 -7 5 -11 -1 -11 -16 0 -13 4 -18 8 -12
15 22 42 24 63 3 19 -19 21 -30 17 -134 -1 -63 -2 -112 -1 -111 5 5 62 175 68
203 3 18 4 41 1 51 -8 24 -47 42 -89 42 -29 0 -32 3 -34 34 -2 23 4 39 17 51
14 13 17 21 9 26 -6 4 -8 12 -5 18 11 18 26 13 26 -8 0 -12 9 -22 23 -26 52
-16 91 -72 102 -147 6 -40 0 -67 -45 -199 -59 -174 -111 -271 -172 -324 -89
-76 -185 -105 -235 -70 -12 8 -24 11 -27 6 -3 -5 -22 -69 -41 -142 -20 -74
-52 -170 -71 -215 -26 -60 -39 -115 -54 -215 -27 -183 -29 -176 26 -133 31 23
52 33 63 28 9 -4 44 -9 77 -12 55 -4 61 -6 57 -23 -5 -17 -8 -18 -22 -6 -27
24 -41 11 -27 -26 22 -53 10 -101 -33 -135 -28 -22 -44 -29 -64 -25 -19 4 -27
1 -27 -8 0 -11 -2 -11 -10 1 -5 8 -10 11 -10 7 0 -5 -13 6 -29 23 l-29 32 -6
-48 c-3 -27 -8 -87 -11 -134 -10 -128 -21 -199 -62 -378 l-38 -164 -94 -86
c-51 -48 -111 -112 -131 -142 -43 -62 -91 -109 -203 -199 -42 -34 -74 -67 -71
-73 10 -15 107 -1 165 24 31 13 61 36 81 62 18 22 67 79 108 126 105 118 143
173 195 284 43 93 73 126 62 68 -3 -15 4 -55 15 -90 19 -55 20 -70 10 -129 -6
-36 -10 -69 -8 -72 11 -18 16 -355 7 -466 -6 -71 -17 -263 -26 -425 -20 -375
-34 -599 -42 -627 l-5 -23 1066 0 1066 0 0 2084 c0 1789 -2 2085 -14 2095 -11
9 -13 27 -9 69 3 31 9 61 14 66 15 16 10 51 -9 72 -10 10 -26 44 -35 75 -10
31 -29 66 -43 78 -26 23 -32 55 -11 68 22 14 57 70 57 92 0 23 19 28 38 9 9
-9 12 133 12 640 l0 652 -770 0 c-875 0 -795 9 -780 -90 5 -30 10 -108 12
-174 l3 -118 -55 6 c-61 7 -121 26 -133 41 -4 5 -5 20 -2 31 3 13 -1 24 -8 27
-17 6 -44 -9 -34 -19 12 -13 -15 -34 -44 -34 -37 0 -59 24 -59 65 0 41 29 65
80 65 30 0 44 8 82 48 25 26 48 59 52 75 3 15 9 38 12 52 l6 25 -1611 0 -1611
0 -31 -35 c-31 -33 -32 -34 -60 -19 -17 8 -29 23 -29 34 0 20 -9 20 -510 20
l-510 0 0 -3000z m3305 2869 c10 -16 3 -16 -35 -3 l-35 13 32 0 c17 1 35 -4
38 -10z m285 -16 c120 -32 213 -90 145 -90 -14 0 -25 3 -25 8 0 4 -16 11 -35
15 -19 3 -38 10 -41 15 -3 5 -18 9 -35 9 -16 0 -29 5 -29 10 0 6 -8 10 -17 10
-10 0 -27 7 -37 15 -11 8 -28 15 -38 15 -10 0 -18 4 -18 9 0 12 54 5 130 -16z
m-2435 6 c12 -19 -5 -23 -22 -6 -16 16 -16 17 -1 17 9 0 20 -5 23 -11z m2515
-9 c8 -5 11 -10 5 -10 -5 0 -17 5 -25 10 -8 5 -10 10 -5 10 6 0 17 -5 25 -10z
m-230 -22 c36 -13 67 -26 68 -30 2 -5 9 -8 16 -8 7 0 30 -11 50 -25 41 -28 47
-23 14 12 -28 30 -11 30 22 0 39 -35 73 -54 95 -52 12 1 28 -9 38 -21 l16 -22
-46 14 c-26 8 -58 21 -71 30 -23 15 -25 15 -19 0 7 -19 -5 -14 -35 12 -10 8
-18 12 -18 8 0 -10 42 -45 55 -46 6 0 18 -9 28 -20 9 -11 25 -20 35 -20 49 0
135 -60 185 -130 l18 -25 -6 25 -6 25 20 -25 c11 -14 30 -45 41 -69 12 -24 30
-45 41 -48 10 -3 19 -8 19 -12 0 -4 15 -13 34 -19 38 -14 50 -26 61 -62 l8
-25 -21 25 c-15 17 -21 20 -22 10 0 -8 -9 0 -20 18 -21 34 -46 44 -36 15 6
-17 5 -17 -8 0 -7 9 -21 17 -30 17 -10 0 -14 5 -11 10 3 6 1 10 -4 10 -6 0
-11 -4 -11 -10 0 -26 -20 -6 -26 25 -5 29 -10 34 -25 30 -12 -4 -19 -2 -19 7
0 7 -12 19 -27 25 l-26 13 23 -25 22 -24 -22 6 c-12 3 -27 14 -33 24 -13 21
-52 26 -62 8 -5 -7 -12 -5 -23 4 -22 20 -132 68 -132 58 0 -4 18 -17 40 -30
22 -12 43 -28 47 -35 5 -7 15 -16 23 -19 12 -4 12 -6 -2 -6 -10 -1 -25 8 -35
18 -17 18 -85 52 -161 81 -41 16 -47 26 -27 46 14 14 13 17 -9 35 -13 10 -31
19 -40 19 -21 0 -66 21 -66 32 0 5 14 2 30 -7 33 -17 40 -10 13 12 -17 13 -16
14 7 9 14 -3 52 -8 84 -12 l59 -7 -21 21 c-47 47 -96 59 -152 39 -14 -5 -56
-12 -122 -20 -14 -2 -39 -12 -53 -21 -19 -12 -26 -14 -23 -5 2 7 23 23 47 35
23 13 40 26 39 31 -5 13 124 21 165 10 20 -6 40 -7 45 -3 12 13 -30 36 -67 37
-20 1 -49 5 -66 9 l-30 8 29 1 c21 1 27 5 22 16 -7 20 -3 19 74 -7z m-361 -12
c-2 -2 -26 -6 -54 -10 -34 -4 -43 -3 -30 3 19 9 93 15 84 7z m58 -32 c-3 -3
-12 -4 -19 -1 -8 3 -5 6 6 6 11 1 17 -2 13 -5z m33 -14 c-8 -5 -28 -9 -45 -9
l-30 1 30 8 c17 4 37 8 45 9 13 1 13 0 0 -9z m715 -120 c8 -13 -15 -13 -35 0
-12 8 -11 10 7 10 12 0 25 -4 28 -10z m-539 -15 c-2 -5 0 -17 5 -26 7 -14 2
-17 -29 -22 -20 -2 -50 -4 -67 -2 -16 1 -43 3 -60 4 -23 1 -26 4 -15 11 12 8
12 10 -3 16 -9 3 -14 10 -11 15 3 5 9 7 14 4 5 -3 11 -1 15 5 8 13 156 8 151
-5z m1625 -33 c81 -6 156 -15 168 -21 12 -7 31 -10 44 -9 12 2 22 -1 22 -6 0
-14 -40 -14 -240 -4 -323 16 -414 24 -431 39 -34 28 51 28 437 1z m317 -30 c4
-24 -7 -29 -25 -11 -14 14 -5 41 11 36 6 -2 12 -13 14 -25z m-2108 3 c29 3 50
1 50 -5 0 -6 6 -10 14 -10 8 0 18 -5 22 -11 4 -7 -7 -10 -34 -8 -23 2 -44 0
-48 -4 -4 -4 -27 -7 -51 -7 -23 0 -43 -5 -43 -11 0 -6 -5 -7 -12 -2 -7 4 -22
6 -33 5 -15 -2 -17 -1 -6 7 11 7 10 10 -5 14 -10 3 10 3 46 1 50 -2 57 -1 30
5 -19 5 -30 9 -23 10 7 0 10 8 6 17 -5 14 -3 15 15 5 12 -6 43 -9 72 -6z m250
-5 c0 -5 9 -10 19 -10 11 0 23 -4 26 -10 7 -11 -9 -13 -42 -4 -22 6 -33 34
-13 34 6 0 10 -4 10 -10z m-64 -50 c8 0 13 -4 10 -8 -2 -4 -24 -6 -48 -3 -36
4 -39 5 -18 11 14 3 26 12 26 20 3 31 7 34 11 8 3 -16 11 -28 19 -28z m760 28
l19 -23 -25 20 c-14 11 -27 21 -29 22 -2 2 0 3 6 3 5 0 18 -10 29 -22z m314
-3 c17 -9 30 -19 30 -24 0 -5 -19 -25 -41 -46 -33 -29 -43 -34 -51 -24 -6 9
-8 0 -4 -28 4 -24 3 -43 0 -43 -3 0 -24 10 -45 22 -37 21 -50 38 -29 38 16 0
23 49 10 65 -6 8 -9 23 -5 35 5 17 15 20 56 20 28 0 63 -7 79 -15z m-1035 -5
c4 -6 -5 -10 -20 -10 -15 0 -24 4 -20 10 3 6 12 10 20 10 8 0 17 -4 20 -10z
m582 -6 c-3 -3 -12 -4 -19 -1 -8 3 -5 6 6 6 11 1 17 -2 13 -5z m982 -18 c9
-10 8 -15 -1 -18 -21 -7 -71 6 -76 20 -5 17 62 16 77 -2z m-3496 -11 c4 -8 2
-17 -4 -21 -12 -7 -41 15 -33 27 8 14 31 11 37 -6z m1741 -20 c31 -7 37 -5 31
5 -6 9 -1 8 14 -2 15 -11 35 -14 61 -11 29 4 48 -1 80 -20 l41 -24 -73 1 c-40
0 -76 5 -79 9 -9 13 -107 18 -115 6 -3 -6 -10 -6 -17 -1 -7 5 -21 6 -32 1 -19
-7 -19 -8 3 -8 40 -2 13 -21 -29 -21 -28 0 -39 4 -39 15 0 13 -9 15 -52 10
-52 -6 -52 -6 -23 9 17 8 24 15 16 15 -10 1 -11 4 -2 15 13 16 140 16 215 1z
m-354 -25 c-8 -5 -19 -10 -25 -10 -5 0 -3 5 5 10 8 5 20 10 25 10 6 0 3 -5 -5
-10z m952 -7 c8 -10 18 -25 22 -33 4 -8 -2 -5 -13 8 -11 13 -24 21 -28 19 -4
-3 -14 1 -21 9 -11 12 -10 14 6 14 10 0 26 -8 34 -17z m-1610 -73 c10 0 18 -4
18 -8 0 -5 17 -15 38 -23 20 -8 56 -24 80 -36 48 -26 56 -28 47 -13 -3 6 -2
10 4 10 5 0 13 -5 16 -10 4 -6 10 -8 15 -5 5 3 11 1 14 -4 3 -5 49 -8 101 -7
52 1 95 -1 95 -6 0 -8 -21 -12 -50 -9 -11 1 -10 -2 3 -10 11 -6 30 -9 43 -6
16 3 24 0 24 -9 0 -8 -7 -14 -15 -14 -9 0 -15 -9 -15 -21 0 -18 -5 -21 -30
-17 -16 3 -30 1 -30 -3 0 -12 38 -21 59 -14 16 5 18 2 14 -15 -4 -14 -14 -20
-32 -20 -14 0 -39 -9 -56 -20 -16 -11 -38 -20 -48 -20 -10 0 -15 -4 -12 -10 3
-5 1 -10 -4 -10 -6 0 -11 5 -11 11 0 6 -9 8 -21 4 -11 -4 -32 -4 -47 0 -25 7
-24 8 23 23 l50 15 -45 9 c-25 4 -50 14 -55 21 -7 10 -17 12 -33 6 -14 -5 -22
-5 -22 2 0 6 -4 7 -10 4 -12 -8 -12 -16 -1 -34 8 -12 12 -12 26 2 18 18 40 23
30 7 -3 -5 -1 -10 4 -10 6 0 11 -4 11 -10 0 -5 -9 -10 -19 -10 -11 0 -23 -4
-26 -10 -3 -5 -26 -10 -51 -10 -32 0 -44 4 -44 15 0 8 7 15 15 15 23 0 18 18
-7 25 -26 9 -70 54 -62 66 3 5 -6 24 -20 42 -33 43 -33 54 -1 33 25 -16 25
-16 13 9 -6 14 -15 25 -20 25 -7 0 -7 31 1 70 1 2 6 -1 13 -8 7 -7 20 -12 30
-12z m1708 1 c0 -5 14 -14 30 -21 18 -8 30 -20 30 -31 0 -11 -1 -19 -3 -19 -2
0 -21 18 -42 40 -21 22 -34 40 -27 40 7 0 12 -4 12 -9z m-980 -11 c-8 -5 -22
-10 -30 -10 -13 0 -13 1 0 10 8 5 22 10 30 10 13 0 13 -1 0 -10z m516 -15 c15
-13 -15 -23 -76 -24 -31 0 -40 2 -30 8 8 6 19 7 25 4 7 -4 7 -2 0 5 -5 6 -23
12 -40 15 -16 2 2 4 40 3 39 -1 75 -5 81 -11z m444 -20 c0 -12 -29 -3 -34 10
-4 13 -2 14 14 5 11 -6 20 -13 20 -15z m-1053 9 c-3 -3 -12 -4 -19 -1 -8 3 -5
6 6 6 11 1 17 -2 13 -5z m380 0 c-3 -3 -12 -4 -19 -1 -8 3 -5 6 6 6 11 1 17
-2 13 -5z m269 -35 c3 -6 20 -17 38 -25 26 -11 28 -13 9 -14 -14 0 -21 -5 -17
-13 7 -19 -27 -18 -48 0 -19 17 -45 19 -100 8 -33 -7 -38 -5 -38 11 0 11 -3
15 -8 8 -11 -16 -41 -24 -47 -14 -4 6 -11 10 -16 10 -6 0 -8 -4 -4 -9 5 -9
-20 -11 -127 -13 -16 -1 -28 -6 -28 -12 0 -6 -15 -12 -32 -12 -18 -1 -46 -5
-63 -9 -23 -5 -26 -4 -15 4 11 8 12 11 2 11 -7 0 -10 5 -7 10 7 11 -18 13 -52
4 -36 -10 -27 -27 9 -18 29 6 31 5 19 -10 -7 -9 -23 -16 -35 -16 -17 0 -18 -2
-6 -10 13 -8 12 -11 -5 -24 -28 -21 -38 -20 -32 4 3 11 1 18 -3 15 -5 -3 -11
-1 -14 4 -3 5 1 12 10 15 9 4 14 9 11 13 -9 8 34 40 77 58 25 11 42 12 60 5
14 -5 34 -7 43 -4 15 5 16 4 3 -5 -19 -14 51 -8 125 10 91 22 281 34 291 18z
m458 -10 c-3 -5 -10 -7 -15 -3 -5 3 -7 10 -3 15 3 5 10 7 15 3 5 -3 7 -10 3
-15z m-1072 -39 c-12 -12 -22 -18 -22 -14 0 12 33 45 38 39 3 -3 -4 -14 -16
-25z m-192 -40 c-20 -13 -43 -13 -35 0 3 6 16 10 28 10 18 0 19 -2 7 -10z
m415 -10 c-3 -5 -10 -10 -16 -10 -5 0 -9 5 -9 10 0 6 7 10 16 10 8 0 12 -4 9
-10z m144 -12 c28 -6 51 -14 51 -17 0 -3 -23 -7 -50 -8 -28 -1 -50 3 -50 8 0
5 -19 9 -42 9 -32 0 -39 3 -28 10 20 13 58 12 119 -2z m-479 -22 c0 -2 -7 -7
-16 -10 -8 -3 -12 -2 -9 4 6 10 25 14 25 6z m180 -25 c0 -8 -52 -31 -71 -31
-24 0 -4 19 29 28 20 5 38 10 40 11 1 1 2 -3 2 -8z m776 -28 c-7 -7 -26 7 -26
19 0 6 6 6 15 -2 9 -7 13 -15 11 -17z m794 6 c0 -15 62 -79 76 -79 8 0 14 -3
14 -8 0 -4 10 -12 22 -17 13 -6 27 -25 32 -43 13 -45 -18 -88 -60 -84 -16 1
-39 2 -50 2 -27 1 -58 34 -59 66 -1 13 -10 33 -20 44 -18 20 -18 22 0 79 13
39 24 57 32 54 7 -3 13 -9 13 -14z m-3978 -7 c5 -5 12 -28 15 -50 5 -34 2 -42
-16 -51 -19 -10 -25 -8 -52 21 -32 35 -45 70 -34 88 8 13 72 7 87 -8z m2677 9
c19 -1 31 -4 28 -8 -9 -8 -137 -10 -137 -2 0 12 12 16 43 14 18 -2 47 -3 66
-4z m-509 -27 c0 -8 -5 -12 -10 -9 -6 4 -8 11 -5 16 9 14 15 11 15 -7z m148
-9 c-8 -9 -108 -19 -108 -11 0 11 95 34 104 25 5 -5 7 -11 4 -14z m457 6 c17
-7 17 -8 -8 -13 -15 -3 -27 -1 -27 3 0 5 -8 6 -17 3 -15 -5 -16 -4 -3 5 17 12
27 13 55 2z m-645 -11 c-8 -5 -19 -10 -25 -10 -5 0 -3 5 5 10 8 5 20 10 25 10
6 0 3 -5 -5 -10z m488 1 c1 -1 2 -5 2 -11 0 -12 -87 -13 -94 -1 -10 15 8 22
48 17 23 -3 42 -5 44 -5z m42 5 c0 -2 -8 -10 -17 -17 -16 -13 -17 -12 -4 4 13
16 21 21 21 13z m-795 -16 c-3 -5 -21 -9 -38 -9 l-32 1 30 8 c43 11 47 11 40
0z m181 1 c-8 -12 -46 -21 -46 -11 0 9 18 18 38 19 7 1 11 -3 8 -8z m207 -49
c12 -13 26 -18 40 -14 19 5 19 4 6 -10 -7 -9 -19 -13 -25 -9 -20 11 -74 60
-74 66 0 9 34 -11 53 -33z m2337 -7 c42 -35 43 -36 115 -29 68 6 73 5 89 -17
24 -35 21 -45 -32 -102 -27 -29 -59 -67 -71 -84 -18 -27 -26 -31 -41 -23 -10
6 -42 10 -70 10 -71 0 -104 33 -114 112 -10 76 1 124 31 148 35 27 45 26 93
-15z m-2185 -36 c30 -11 55 -24 55 -29 0 -5 6 -8 13 -6 6 1 9 1 4 -1 -4 -3 -5
-9 -1 -14 3 -5 0 -9 -5 -9 -6 0 -11 5 -11 11 0 5 -5 7 -12 3 -7 -4 -8 -3 -4 4
4 7 3 12 -3 12 -5 0 -13 -4 -16 -10 -6 -9 9 -26 70 -76 l30 -24 -30 11 c-33
13 -64 25 -110 44 -70 30 -81 34 -107 39 -46 10 -33 28 17 24 25 -2 45 0 45 4
0 5 -7 8 -15 8 -28 0 -13 26 17 29 4 1 32 -8 63 -20z m-535 -4 c-7 -9 -15 -13
-17 -11 -7 7 7 26 19 26 6 0 6 -6 -2 -15z m30 -74 c-28 -16 -60 -22 -60 -12 0
9 24 17 60 19 13 1 13 0 0 -7z m3294 -75 c57 -20 106 -86 106 -144 0 -69 -18
-82 -107 -82 -68 0 -76 2 -123 36 -49 35 -50 36 -43 77 7 49 36 89 78 110 39
19 43 19 89 3z m-1910 -45 c3 -5 -5 -8 -19 -7 -14 0 -25 4 -25 9 0 10 38 9 44
-2z m183 -86 c-4 -8 -11 -15 -17 -15 -7 0 -7 6 0 21 13 23 26 19 17 -6z m142
-42 c0 -5 -4 -17 -9 -28 -8 -18 -9 -17 -9 8 -1 15 4 27 9 27 6 0 10 -3 9 -7z
m-694 -13 c-3 -5 -11 -10 -16 -10 -6 0 -7 5 -4 10 3 6 11 10 16 10 6 0 7 -4 4
-10z m1815 -36 c0 -13 -2 -24 -4 -24 -2 0 -12 -3 -21 -7 -15 -5 -16 -2 -9 18
4 13 7 32 6 42 -1 15 2 16 14 7 8 -7 14 -23 14 -36z m-2101 -50 c-15 -18 -22
-13 -13 10 3 9 10 13 16 10 5 -3 4 -12 -3 -20z m-1333 -34 c21 0 24 -40 4 -50
-29 -15 -48 -12 -60 11 -16 30 -5 53 23 45 12 -3 27 -6 33 -6z m3427 -43 c34
-24 32 -52 -5 -75 -23 -13 -31 -14 -51 -3 -25 13 -53 82 -42 101 8 13 65 0 98
-23z m343 -57 c15 0 24 -6 24 -15 0 -8 -4 -15 -9 -15 -20 0 -71 23 -71 32 0 6
7 7 16 4 9 -3 27 -6 40 -6z m-1116 -224 c0 -3 -4 -8 -10 -11 -5 -3 -10 -1 -10
4 0 6 5 11 10 11 6 0 10 -2 10 -4z m1 -69 c-8 -8 -11 -3 -11 19 1 25 2 27 11
11 8 -14 8 -22 0 -30z m-2337 -75 c4 -7 14 -12 22 -12 8 0 14 -6 14 -14 0 -7
7 -19 15 -26 17 -14 20 -60 4 -60 -6 0 -9 6 -6 14 3 8 -1 20 -8 26 -8 7 -13
16 -10 20 3 4 -1 13 -9 19 -10 9 -16 8 -26 -4 -22 -27 -30 -16 -30 43 0 67 12
90 21 40 3 -19 9 -39 13 -46z m41 53 c0 -10 -10 -21 -22 -26 -14 -5 -23 -5
-23 1 0 6 5 10 10 10 6 0 10 9 10 21 0 12 5 19 13 17 6 -3 12 -13 12 -23z
m2325 0 c0 -8 -4 -15 -10 -15 -5 0 -10 7 -10 15 0 8 5 15 10 15 6 0 10 -7 10
-15z m-1655 -15 c8 -13 -5 -13 -25 0 -13 8 -13 10 2 10 9 0 20 -4 23 -10z
m-605 -31 c0 -14 -16 -11 -29 5 -10 12 -8 13 8 9 12 -3 21 -9 21 -14z m1960
-49 c0 -5 -2 -10 -4 -10 -3 0 -8 5 -11 10 -3 6 -1 10 4 10 6 0 11 -4 11 -10z
m-1195 -41 c10 -30 0 -33 -13 -4 -6 14 -7 25 -2 25 5 0 12 -9 15 -21z m1215 1
c0 -5 -5 -10 -11 -10 -5 0 -7 5 -4 10 3 6 8 10 11 10 2 0 4 -4 4 -10z m-1979
-92 c-9 -20 -10 -18 -10 17 0 31 2 36 9 23 6 -10 7 -25 1 -40z m809 12 c0 -5
-4 -10 -10 -10 -5 0 -10 5 -10 10 0 6 5 10 10 10 6 0 10 -4 10 -10z m-72 -147
c0 -35 -32 -92 -65 -117 l-25 -19 7 24 c15 54 28 78 38 72 6 -4 8 0 4 11 -4 9
-3 15 2 12 4 -3 14 6 21 19 17 31 17 31 18 -2z m-718 -118 c0 -5 -5 -3 -10 5
-5 8 -10 20 -10 25 0 6 5 3 10 -5 5 -8 10 -19 10 -25z m35 5 c3 -5 -1 -10 -9
-10 -9 0 -16 5 -16 10 0 6 4 10 9 10 6 0 13 -4 16 -10z m315 -190 c0 -5 -21
-25 -47 -45 -51 -39 -90 -44 -85 -10 6 32 6 32 130 64 1 1 2 -3 2 -9z m1650
-405 c0 -17 -18 -19 -39 -6 -8 5 -11 16 -8 25 5 14 11 15 27 6 11 -6 20 -17
20 -25z m1220 1 c0 -9 -30 -14 -35 -6 -4 6 3 10 14 10 12 0 21 -2 21 -4z
m-545 -110 c33 -22 28 -38 -14 -49 -35 -9 -76 10 -88 40 -13 34 54 40 102 9z
m277 -104 c19 -34 17 -52 -6 -52 -8 0 -12 -11 -10 -32 2 -18 1 -25 -2 -15 -3
9 -14 17 -24 17 -18 0 -34 25 -25 40 3 5 1 11 -5 15 -11 7 -14 48 -3 59 17 17
57 0 75 -32z m251 -116 c9 -26 6 -32 -18 -53 -39 -34 -70 -27 -69 13 3 66 68
96 87 40z m-243 -45 c0 -5 -9 -7 -20 -4 -11 3 -20 7 -20 9 0 2 9 4 20 4 11 0
20 -4 20 -9z m630 -11 c22 -12 42 -64 33 -88 -17 -47 -60 -65 -102 -42 -25 13
-18 98 11 123 23 20 32 21 58 7z m-810 -52 c19 -9 46 -27 59 -41 22 -24 23
-31 16 -100 -5 -64 -4 -75 10 -81 9 -3 25 -1 36 4 14 8 37 7 78 -1 53 -10 62
-9 85 7 13 11 30 29 37 42 9 16 19 22 33 18 26 -7 84 21 103 50 8 13 30 33 49
45 46 28 84 19 120 -29 37 -49 46 -54 65 -36 8 7 20 14 26 14 20 0 64 -42 59
-56 -3 -9 1 -14 13 -14 23 0 55 -35 48 -53 -5 -15 -45 -16 -85 -3 -19 6 -30 2
-53 -20 -16 -15 -29 -33 -29 -39 0 -16 -40 -51 -68 -60 -18 -5 -22 -12 -18
-28 3 -12 6 -27 6 -34 0 -6 7 -19 16 -28 16 -15 16 -18 0 -33 -14 -15 -48 -17
-251 -20 -146 -2 -241 0 -253 7 -14 8 -29 5 -60 -10 -55 -28 -226 -30 -270 -3
-27 15 -33 15 -108 -6 -62 -18 -104 -22 -197 -22 -114 1 -120 2 -165 30 -26
17 -70 37 -99 45 -42 13 -64 28 -112 79 -46 48 -57 66 -48 75 7 6 53 14 102
17 68 5 92 10 100 23 6 9 27 34 47 56 21 21 37 46 36 55 -1 10 0 30 0 46 2 28
3 28 40 22 78 -15 95 -13 102 14 7 31 30 36 73 15 46 -22 64 -56 48 -91 -15
-33 3 -61 20 -32 6 10 28 21 50 24 24 4 44 14 50 25 5 11 21 19 34 19 13 0 26
4 29 9 3 5 31 12 61 16 l55 6 0 43 c0 68 17 73 110 34z m-3340 1 c0 -5 -11 -9
-25 -9 -14 0 -25 6 -25 14 0 9 8 12 25 8 14 -2 25 -8 25 -13z m3490 11 c0 -5
-4 -10 -10 -10 -5 0 -10 5 -10 10 0 6 5 10 10 10 6 0 10 -4 10 -10z m230 -18
c22 -18 21 -42 -1 -42 -12 0 -49 37 -49 50 0 16 26 12 50 -8z m-1152 -11 c21
-13 11 -85 -12 -90 -39 -7 -62 60 -28 85 20 16 23 16 40 5z m-2140 -10 c11 -6
-1 -24 -47 -70 -71 -70 -110 -94 -132 -80 -11 7 -11 9 4 9 16 0 16 2 -3 22
-23 25 -25 49 -7 81 23 42 38 46 67 17 11 -11 20 -15 20 -10 0 6 4 10 10 10 6
0 6 -9 0 -25 -7 -20 -6 -25 5 -25 9 0 15 10 15 24 0 16 7 27 20 31 11 3 20 11
20 16 0 11 11 11 28 0z m701 -73 c-19 -16 -18 -45 2 -33 5 3 6 -2 2 -11 -5
-15 -9 -13 -30 11 -13 15 -22 34 -19 41 3 8 1 14 -4 14 -11 0 -14 33 -4 43 4
3 22 -6 40 -21 l35 -27 -22 -17z m106 2 c3 -5 -1 -10 -9 -10 -9 0 -16 5 -16
10 0 6 4 10 9 10 6 0 13 -4 16 -10z m-65 -76 c0 -2 -7 -4 -15 -4 -8 0 -15 4
-15 10 0 5 7 7 15 4 8 -4 15 -8 15 -10z m2970 -104 c0 -5 -2 -10 -4 -10 -3 0
-8 5 -11 10 -3 6 -1 10 4 10 6 0 11 -4 11 -10z m-2756 -24 c-3 -9 -10 -13 -15
-10 -5 3 -3 11 4 19 15 16 19 13 11 -9z m2870 -70 c3 -12 6 -38 6 -58 0 -37
-1 -38 -36 -38 -53 0 -74 15 -74 54 0 19 -7 39 -15 46 -21 17 -19 29 3 23 10
-2 24 2 31 11 11 13 16 13 46 -1 18 -9 36 -25 39 -37z m-126 -55 c3 -8 -1 -12
-9 -9 -7 2 -15 10 -17 17 -3 8 1 12 9 9 7 -2 15 -10 17 -17z m-3253 -331 c3
-5 1 -10 -4 -10 -6 0 -11 5 -11 10 0 6 2 10 4 10 3 0 8 -4 11 -10z m3125 -820
l0 -279 -117 -3 -118 -3 103 -68 c56 -38 129 -93 162 -124 56 -51 60 -58 60
-99 0 -41 -4 -46 -101 -141 -55 -54 -105 -100 -110 -101 -5 -2 -32 17 -60 42
-52 47 -286 196 -308 196 -6 0 -86 -52 -177 -116 -91 -64 -172 -117 -179 -118
-7 0 -52 50 -99 113 -77 102 -86 119 -86 157 l0 43 115 81 c63 44 115 83 115
86 0 3 -16 26 -35 51 -47 61 -92 160 -111 241 -15 64 -28 297 -18 314 3 4 221
8 485 8 l479 0 0 -280z"/>
<path d="M3495 5580 c3 -5 11 -10 16 -10 6 0 7 5 4 10 -3 6 -11 10 -16 10 -6
0 -7 -4 -4 -10z"/>
<path d="M3335 5460 c-3 -5 -2 -10 4 -10 5 0 13 5 16 10 3 6 2 10 -4 10 -5 0
-13 -4 -16 -10z"/>
<path d="M2335 5270 c3 -5 11 -10 16 -10 6 0 7 5 4 10 -3 6 -11 10 -16 10 -6
0 -7 -4 -4 -10z"/>
<path d="M2410 5260 c-13 -8 -12 -10 3 -10 9 0 17 5 17 10 0 12 -1 12 -20 0z"/>
<path d="M2360 5210 c0 -13 11 -13 30 0 12 8 11 10 -7 10 -13 0 -23 -4 -23
-10z"/>
<path d="M2904 4925 c11 -8 25 -15 30 -15 6 0 2 7 -8 15 -11 8 -25 15 -30 15
-6 0 -2 -7 8 -15z"/>
<path d="M4950 2454 c0 -10 -9 -25 -20 -32 -15 -9 -20 -23 -20 -53 0 -54 16
-85 36 -68 8 6 14 17 14 24 0 6 9 20 20 30 28 25 25 66 -5 95 -23 22 -25 22
-25 4z"/>
<path d="M5360 2335 c0 -8 6 -15 14 -15 22 0 28 17 10 24 -22 9 -24 8 -24 -9z"/>
<path d="M4804 1184 c15 -149 81 -288 192 -404 64 -67 75 -48 -108 -175 l-126
-88 55 -73 55 -74 92 65 c50 35 128 89 173 120 l81 57 121 -71 c66 -40 150
-93 185 -120 l64 -49 63 64 c53 54 60 65 50 78 -24 29 -145 113 -261 181 -245
144 -338 218 -391 309 -16 28 -29 54 -29 59 0 4 99 7 220 7 l219 0 3 -87 3
-88 93 -3 92 -3 0 181 0 180 -426 0 -427 0 7 -66z"/>
<path d="M5200 923 c0 -13 177 -133 197 -133 4 0 8 30 8 68 l0 67 -103 1 c-56
1 -102 -1 -102 -3z"/>
<path d="M5973 4603 c10 -58 27 -65 27 -10 0 37 -4 47 -16 47 -14 0 -15 -7
-11 -37z"/>
<path d="M3165 4469 c-11 -17 1 -21 15 -4 8 9 8 15 2 15 -6 0 -14 -5 -17 -11z"/>
<path d="M3425 4090 c-3 -5 -3 -10 2 -10 4 0 1 -5 -7 -10 -12 -8 -10 -10 9
-10 16 0 21 4 18 14 -3 8 -1 17 6 20 7 2 5 5 -5 5 -9 1 -20 -3 -23 -9z"/>
<path d="M3288 4070 c-107 -16 -168 -39 -74 -26 27 3 72 6 101 6 38 0 60 6 76
20 13 10 20 19 14 18 -5 0 -58 -8 -117 -18z"/>
<path d="M3462 4054 c-45 -8 -96 -21 -113 -29 -16 -9 -34 -13 -39 -10 -21 13
-79 -26 -90 -61 -6 -18 -9 -38 -6 -43 4 -5 2 -12 -4 -16 -12 -7 -4 -25 11 -25
5 0 9 6 7 13 -3 12 3 17 22 17 15 0 12 -36 -5 -50 -11 -9 -15 -10 -15 -1 0 8
-5 7 -15 -3 -20 -20 -19 -32 6 -54 11 -11 19 -26 18 -33 -6 -29 11 -68 26 -63
10 4 15 0 15 -14 0 -11 14 -46 31 -78 24 -46 29 -66 24 -94 -5 -28 -2 -40 11
-51 9 -8 28 -37 40 -66 13 -28 28 -54 34 -58 6 -4 22 -23 35 -43 13 -21 49
-64 80 -97 82 -88 69 -126 -49 -140 -36 -5 -45 -10 -37 -18 16 -16 14 -57 -3
-57 -8 0 -16 -7 -20 -15 -5 -14 -2 -14 24 0 16 8 35 13 42 10 8 -3 33 11 57
31 40 34 44 36 59 20 10 -10 19 -39 22 -73 6 -69 25 -79 45 -26 22 54 46 104
67 135 10 14 18 37 18 51 0 33 -36 113 -59 129 -25 18 -103 149 -97 164 2 6
23 15 46 19 120 20 231 72 282 130 39 44 111 326 87 341 -5 3 -9 15 -9 27 -2
92 -148 149 -378 146 -48 -1 -124 -7 -170 -15z m-192 -280 c0 -8 -4 -12 -10
-9 -5 3 -10 10 -10 16 0 5 5 9 10 9 6 0 10 -7 10 -16z m110 -194 c0 -5 -4 -10
-9 -10 -6 0 -13 5 -16 10 -3 6 1 10 9 10 9 0 16 -4 16 -10z"/>
<path d="M4042 4001 c-11 -6 -10 -9 3 -15 26 -10 80 -7 70 3 -15 15 -59 22
-73 12z"/>
<path d="M3152 3983 c-28 -5 -24 -27 6 -31 17 -3 22 2 22 17 0 12 -1 20 -2 20
-2 -1 -13 -4 -26 -6z"/>
<path d="M4120 3950 c0 -5 5 -10 10 -10 6 0 10 5 10 10 0 6 -4 10 -10 10 -5 0
-10 -4 -10 -10z"/>
<path d="M3944 3538 l-19 -23 23 19 c21 18 27 26 19 26 -2 0 -12 -10 -23 -22z"/>
<path d="M3370 2940 c0 -5 7 -10 16 -10 8 0 12 5 9 10 -3 6 -10 10 -16 10 -5
0 -9 -4 -9 -10z"/>
<path d="M3130 2671 c0 -5 -3 -16 -6 -25 -3 -9 -2 -16 4 -16 13 0 23 38 11 46
-5 3 -9 1 -9 -5z"/>
<path d="M3030 2485 c-8 -9 -8 -15 -2 -15 12 0 26 19 19 26 -2 2 -10 -2 -17
-11z"/>
<path d="M3073 2415 c-8 -23 0 -25 21 -4 18 17 18 19 2 19 -9 0 -19 -7 -23
-15z"/>
</g>
</svg>
